<svg width="175" height="37" viewBox="0 0 175 37" fill="none" xmlns="http://www.w3.org/2000/svg">
<path fill-rule="evenodd" clip-rule="evenodd" d="M48.6059 0C51.9392 0 54.5559 1.05 56.4559 3.15C58.3892 5.21667 59.3559 8.13333 59.3559 11.9V26.5H55.1059L53.9059 22.4C53.1725 23.6333 52.0892 24.7167 50.6559 25.65C49.2225 26.55 47.5225 27 45.5559 27C43.8225 27 42.2559 26.65 40.8559 25.95C39.4892 25.25 38.4225 24.2667 37.6559 23C36.8892 21.7333 36.5059 20.3 36.5059 18.7C36.5059 16.2333 37.4725 14.2667 39.4059 12.8C41.3725 11.3 44.2225 10.55 47.9559 10.55H53.5559C53.4225 8.81667 52.8892 7.45 51.9559 6.45C51.0559 5.41667 49.8392 4.9 48.3059 4.9C47.0725 4.9 46.0059 5.2 45.1059 5.8C44.2059 6.4 43.5392 7.13333 43.1059 8L37.8059 7.1C38.4392 4.9 39.7392 3.16667 41.7059 1.9C43.7059 0.633334 46.0059 0 48.6059 0ZM46.9059 22.15C48.9059 22.15 50.5225 21.5 51.7559 20.2C52.9892 18.9 53.6059 17.1833 53.6059 15.05H48.1559C44.2559 15.05 42.3059 16.1833 42.3059 18.45C42.3059 19.5833 42.7225 20.4833 43.5559 21.15C44.3892 21.8167 45.5059 22.15 46.9059 22.15ZM65.5938 0.5V36.75H71.3438V22.55C72.3771 23.8167 73.7104 24.8833 75.3438 25.75C76.9771 26.5833 78.8438 27 80.9437 27C83.3771 27 85.5604 26.4333 87.4938 25.3C89.4271 24.1333 90.9271 22.5333 91.9938 20.5C93.0938 18.4333 93.6438 16.1 93.6438 13.5C93.6438 10.9 93.0938 8.58333 91.9938 6.55C90.9271 4.48333 89.4271 2.88333 87.4938 1.75C85.5604 0.583333 83.3771 0 80.9437 0C78.7771 0 76.8604 0.466666 75.1937 1.4C73.5271 2.3 72.1604 3.4 71.0938 4.7L69.8938 0.5H65.5938ZM85.3938 19.55C83.8938 21.0833 81.9437 21.85 79.5437 21.85C77.1104 21.85 75.1271 21.0833 73.5938 19.55C72.0938 17.9833 71.3438 15.9667 71.3438 13.5C71.3438 11.0333 72.0938 9.03333 73.5938 7.5C75.1271 5.93333 77.1104 5.15 79.5437 5.15C81.9437 5.15 83.8938 5.93333 85.3938 7.5C86.8938 9.03333 87.6438 11.0333 87.6438 13.5C87.6438 15.9667 86.8938 17.9833 85.3938 19.55ZM130.361 25.3C132.427 26.4333 134.761 27 137.361 27C140.194 27 142.761 26.2833 145.061 24.85C147.361 23.4167 148.977 21.3833 149.911 18.75L144.511 17.85C143.911 19.0167 143.011 19.9667 141.811 20.7C140.611 21.4 139.244 21.75 137.711 21.75C135.377 21.75 133.477 20.9833 132.011 19.45C130.544 17.9167 129.811 15.9333 129.811 13.5C129.811 11.0667 130.544 9.08333 132.011 7.55C133.477 6.01667 135.377 5.25 137.711 5.25C139.177 5.25 140.494 5.6 141.661 6.3C142.861 7 143.744 7.91667 144.311 9.05L149.711 8.15C148.777 5.55 147.194 3.55 144.961 2.15C142.761 0.716668 140.227 0 137.361 0C134.761 0 132.427 0.583333 130.361 1.75C128.294 2.88333 126.677 4.48333 125.511 6.55C124.377 8.58333 123.811 10.9 123.811 13.5C123.811 16.1 124.377 18.4333 125.511 20.5C126.677 22.5333 128.294 24.1333 130.361 25.3ZM174.824 26.5V0.5H163.274C161.34 0.5 159.607 0.883334 158.074 1.65C156.54 2.38333 155.34 3.41667 154.474 4.75C153.607 6.08333 153.174 7.6 153.174 9.3C153.174 11.1333 153.657 12.75 154.624 14.15C155.59 15.55 156.924 16.5833 158.624 17.25L152.424 26.5H158.974L164.474 18.15H169.074V26.5H174.824ZM169.074 5.5V13.15H163.274C161.974 13.15 160.924 12.8 160.124 12.1C159.324 11.4 158.924 10.4667 158.924 9.3C158.924 8.16667 159.324 7.25 160.124 6.55C160.924 5.85 161.974 5.5 163.274 5.5H169.074ZM116.174 0.5H122.024L111.374 29.75C110.474 32.2167 109.307 34 107.874 35.1C106.474 36.2 104.59 36.75 102.224 36.75H98.2738L97.7738 31.5H102.624C103.59 31.5 104.324 31.2833 104.824 30.85C105.357 30.45 105.807 29.7333 106.174 28.7L106.474 27.9L94.9238 0.5H101.074L108.724 19.25H109.524L116.174 0.5ZM0.75 26.5H6.25V7.2H7.05L13.55 26.5H18.4L25.2 7.2H26V26.5H31.5V0.5H22.75L16.5 18.35H15.7L9.7 0.5H0.75V26.5Z" fill="white"/>
</svg>
